<svg id="Capa_1" data-name="Capa 1" xmlns="http://www.w3.org/2000/svg" viewBox="0 0 240.01 51.68"><defs><style>.cls-1{fill:#fed136;}</style></defs><path class="cls-1" d="M9.62,41A21.28,21.28,0,0,0,9.53,49l.36,1.16L11,50c1.57-.21,2.85-.89,4.81-2.54,4-3.39,8.39-9.78,11.66-16.93A62.86,62.86,0,0,0,31.25,19c.51-3.41-.19-7.7-1.6-9.5-.88-1.16-2.57-1.52-4.93-1-2.77.57-5.29,2.07-8.93,5.21-4.44,3.94-10,12.94-11.09,18C4.11,34.6,3.19,35.6,2.46,34.4c-.2-.28-.44-.48-.6-.48s-.6-.4-1-.88c-1.24-1.64-1-4.68.7-8.46C3.46,20.52,8.29,13.65,11.17,11c4.2-3.86,8.88-6.16,12.65-6.17,2.45,0,3.82.55,6,2.42,3.26,2.88,4.59,5.32,5,9.25.66,6-2.75,16.45-8.06,24.41-4.19,6.27-8.47,10.74-11.35,11.83a8,8,0,0,1-4.41.46,5.77,5.77,0,0,1-1.53-.72,15.63,15.63,0,0,0-1.69-1,8.39,8.39,0,0,1-3.46-4.28A25.76,25.76,0,0,1,4,38.85c.67-4.05,3.38-10.36,6.73-15.62,4.79-7.64,9.27-11.58,11-9.7a1.3,1.3,0,0,0,.76.47c.36,0,.64.68.4,1.05-.08.16-.95,1.36-1.91,2.69C16,24.41,11.13,34.42,9.62,41ZM4.2,25.09c.83-1.6,2.71-4.82,3.63-6.15.36-.56.64-1,.56-1a38.32,38.32,0,0,0-3.52,5.43,21.75,21.75,0,0,0-2.5,5.82c-.08.68.08.4.55-1A29.46,29.46,0,0,1,4.2,25.09Zm7.62-10.53c-2.2,2.21-6.9,9.65-8.14,12.78-.67,1.73-.59,2.17.08.48.32-.72,1.12-2.41,1.8-3.69a54.89,54.89,0,0,1,5.27-8.08C12.3,14.2,12.58,13.8,11.82,14.56ZM6.13,39.2c.23-1,.47-2.12.55-2.52s0-.12-.28.64a16.09,16.09,0,0,0-.59,2.53C5.69,40.77,5.77,40.65,6.13,39.2ZM14,23a15.15,15.15,0,0,0,1.31-2.29c-.72.64-3.59,5.62-5.18,8.92-2.55,5.22-4,9.87-3.93,12.28,0,.52.12.2.35-.88s.48-2.41.68-3.21A65.49,65.49,0,0,1,14,23ZM9.36,34a84,84,0,0,1,8.85-16l.72-1-.76.89C14.89,21.53,9.39,32,7.85,37.59c-.72,2.61-.6,2.81.2.28C8.41,36.67,9,34.94,9.36,34ZM14,12.35a2,2,0,0,0-.56.48c-.24.28-.36.48-.32.48a1.54,1.54,0,0,0,.56-.48C13.9,12.55,14.06,12.35,14,12.35ZM25,40c0,.2.2.08.52-.33s.28-.4-.12-.08A1.7,1.7,0,0,0,25,40Zm1-1.37a11.2,11.2,0,0,0,1.32-2c1.75-3,4.1-8.28,3.82-8.56a4.07,4.07,0,0,0-.64,1.41,85.54,85.54,0,0,1-4,8.15A3.63,3.63,0,0,0,26.06,38.66Zm1.71-4a1.6,1.6,0,0,0,.36-.68c0-.32-.12-.2-.44.56C27.41,35.12,27.41,35.12,27.77,34.68Zm.6-1.2A8.31,8.31,0,0,0,29,32.23c.51-1.24.15-.88-.44.44C28.33,33.24,28.21,33.6,28.37,33.48ZM29.92,30a33.13,33.13,0,0,0,1.43-3.77,34.29,34.29,0,0,0,.95-3.33c.08-.56,0-.4-.27.44s-.52,1.2-.64,1.08-.16-.08,0,.12c.2.36-.08,1.57-.36,1.37-.12-.08-.16,0-.08.2a6.9,6.9,0,0,1-.59,2.25C29.32,31.15,29.24,31.47,29.92,30Zm2-4c-.08-.2-.16-.16-.16.12s.05.4.13.32A.42.42,0,0,0,31.91,26.05Zm.67-4.18a.42.42,0,0,0,0-.44c-.08-.2-.12-.12-.16.16S32.5,22,32.58,21.87Z" transform="translate(-0.1 -3.4)"/><path class="cls-1" d="M49.86,45.44A5.12,5.12,0,0,1,48,41.2c0-2.13,1.71-7,3.54-10a5.1,5.1,0,0,0,.72-1.53c-.2-.2-3.48,3.18-5.2,5.35-.84,1.09-2.2,2.94-3,4.14-4.12,6.15-5.31,7.4-6.56,6.56-.32-.2-.6-.48-.6-.6s-.29-.36-.65-.56c-1.81-.87-2.61-3.16-2.26-6.33.47-3.81,4.25-10.36,6.78-11.65.84-.48,1.76-.29,2,.35.08.28.21.48.33.48a6,6,0,0,1,1,.72c1,.88.93,1.36-.47,3.77-1.83,3.18-4.22,8.28-4,8.52a36,36,0,0,0,2.83-3.74c4-5.71,5.67-7.72,7.91-10,3.32-3.3,4.76-4.11,5.65-3.07.16.24.88,1,1.57,1.72,1.2,1.2,1.29,1.36,1.29,2.53,0,1-.28,1.68-1.59,4.29C56.4,33.87,55.21,36,54.61,37a26.42,26.42,0,0,0-2.87,6.59c-.12.88-.08,1,.28,1,1.21,0,4.81-3.06,7.64-6.44a10,10,0,0,1,.92-1.09c.08-.08.76-.92,1.52-1.89,1.52-1.89,2-2.29,1.68-1.61-.16.41-.12.41.24.12.76-.6.44,0-1,2.13-.76,1.17-1.92,2.86-2.56,3.78C59,41.68,55,45.78,53.79,46.35,52.15,47.08,51.35,46.92,49.86,45.44ZM38.44,34.53a35.86,35.86,0,0,1,1.91-3.34,5.31,5.31,0,0,0,.88-1.56c-.32,0-2.68,3.77-3.55,5.7a19.3,19.3,0,0,0-1.51,4.82,10.1,10.1,0,0,0,.71-1.81C37.28,37.22,38,35.49,38.44,34.53Zm-1.24,1a11.54,11.54,0,0,0,.71-2,20.87,20.87,0,0,0-1.63,3.65C36,38.19,36.28,37.54,37.2,35.49Zm1.64.28a41.06,41.06,0,0,1,2.23-4.06,9.31,9.31,0,0,0,1.24-2.29,24,24,0,0,0-2.83,4.3,34.32,34.32,0,0,0-2.11,5c0,.12.16-.08.28-.4S38.32,36.85,38.84,35.77Zm3.34,4.12a.53.53,0,0,0-.24.36c0,.36.21.28.36-.12Q42.42,39.77,42.18,39.89Zm1.36-2.21c-.2,0-.28.08-.24.2s0,.4-.16.6-.24.37,0,.24a2.14,2.14,0,0,0,.52-.64C43.82,37.76,43.78,37.68,43.54,37.68Zm.88-1.49c.28-.4.28-.4-.12-.08a1.13,1.13,0,0,0-.4.41C43.9,36.72,44.1,36.6,44.42,36.19Zm.12.4a1.21,1.21,0,0,0-.4.41c0,.2.2.08.52-.33S44.94,36.27,44.54,36.59Zm1-2.21a3,3,0,0,0-.4.45c0,.2.21.08.52-.32S45.89,34.1,45.49,34.38Zm.36-.44a1.54,1.54,0,0,0,.56-.48c.24-.28.4-.48.32-.48a1.54,1.54,0,0,0-.56.48C45.93,33.74,45.77,33.94,45.85,33.94ZM47,33.46c-.09,0-.32.24-.56.48s-.4.48-.32.48a1.54,1.54,0,0,0,.56-.48C46.9,33.7,47.06,33.46,47,33.46Zm2.35-3.1c-.16-.24-.28-.24-.52,0a1.28,1.28,0,0,0-.36.41c0,.08.16,0,.32-.13s.44-.2.52-.12S49.41,30.52,49.33,30.36Zm.6,10.47.27-.72c.16-.41.6-1.49,1-2.41s1.43-3,2.27-4.5,1.84-3.22,2.12-3.74a7.87,7.87,0,0,0,.71-1.61c.08-.32-.28.16-.76,1.13s-1.63,2.89-2.43,4.34a30.86,30.86,0,0,0-3,6.79Zm1.79-3.3c-.56,1.37-.36,1.21.4-.28.4-.76,1.52-2.85,2.51-4.66a37.37,37.37,0,0,0,1.8-3.41C56.43,28.9,52.16,36.45,51.72,37.53Zm-.09-2.32c.2-.16.24-.36.2-.44s-.24.08-.32.32S51.39,35.45,51.63,35.21Zm.4-.93a14,14,0,0,0,1-1.68c.44-.81.68-1.33.56-1.21a8.06,8.06,0,0,0-1,1.69C52.15,33.88,51.91,34.44,52,34.28ZM53.91,31a5.9,5.9,0,0,0,.71-1.21,3.76,3.76,0,0,0,.48-1.24,5.92,5.92,0,0,0-.72,1.24A3.35,3.35,0,0,0,53.91,31Zm1.2,13.55a1.29,1.29,0,0,0,.4-.36c.2-.28.2-.4,0-.52s-.24-.08-.12,0a.46.46,0,0,1-.12.52C55.11,44.42,55,44.58,55.11,44.58Zm2.32-3s.16,0,.36-.17a.39.39,0,0,1,.52-.08c.08.08.08,0,0-.16s-.24-.24-.52,0A.79.79,0,0,0,57.43,41.61Zm1.36-1c.2,0,.36,0,.36-.08,0-.2-.48-.28-.6-.12S58.59,40.6,58.79,40.6Zm.88-.81c.12-.08.16-.2.08-.28s0-.28.16-.52.24-.32,0-.08S59.31,40,59.67,39.79Zm1.55-2.61a21.72,21.72,0,0,0,1.4-1.73,6.56,6.56,0,0,1,1-1.12.22.22,0,0,0,.08-.32A7.88,7.88,0,0,0,62,35.9C61.18,37,60.83,37.58,61.22,37.18Z" transform="translate(-0.1 -3.4)"/><path class="cls-1" d="M62.78,48.17a11.49,11.49,0,0,1,3-7.35A9.26,9.26,0,0,1,71,37.31a4.28,4.28,0,0,0,1.68-.65c0-.12-.16-.16-.36-.07a1.15,1.15,0,0,1-1-.44C69.07,33.91,73,21.42,79,11.9c3.35-5.39,7-9.13,8.19-8.41a7.16,7.16,0,0,1,2.1,2.72,63,63,0,0,1-3.07,5.58c-3.11,5.23-5.71,9.89-5.54,10.05a24,24,0,0,0,2.63-3.1C91.21,8.77,96.65,4.34,100,5.21c1.13.32,4.06,3,4.79,4.44,1.33,2.56,1,8.26-.88,13.92-1.71,5.14-6.37,13-11.09,18.68a70.93,70.93,0,0,1-9.35,9.14c-4.64,3.14-9.21,4.32-13.35,3.37a11.37,11.37,0,0,1-6.55-4.11A3.52,3.52,0,0,1,62.78,48.17Zm2.12-2a12.69,12.69,0,0,0,.64-2.12,13.07,13.07,0,0,0-1.16,3.33C64.27,47.88,64.54,47.32,64.9,46.19Zm.56-.6c0,.12.2-.12.44-.6a5.9,5.9,0,0,0,.48-1.09c0-.12-.24.12-.48.61A4.87,4.87,0,0,0,65.46,45.59Zm.93,2.6c-.31,1.57,0,3,.69,3.17A13.07,13.07,0,0,0,72.46,51c3.24-1,6.16-3.06,9.84-6.73a90.53,90.53,0,0,0,16-23.15,26.69,26.69,0,0,0,2.78-9.79l.11-2.25-.92,0c-4.7,0-13.29,8.39-21.11,20.48a77.45,77.45,0,0,0-4.31,7.28c0,.16.4.4.92.6,1.73.59,6.11,3.67,6.11,4.23s-.56.6-2.61-.31c-2.61-1.2-3.57-1.36-5.33-1A10.11,10.11,0,0,0,66.39,48.19Zm6.44-17A4.3,4.3,0,0,0,73.19,30c.12-.56.08-.68,0-.36C72.83,30.37,72.6,31.61,72.83,31.17Zm.64-.77c-.83,2.9-.71,3.34.17.53.39-1.25,1.15-3.5,1.66-4.94A87,87,0,0,1,85.67,7.18c.68-.84,1-1.36.72-1.12a74.21,74.21,0,0,0-6,8.48A81.64,81.64,0,0,0,73.47,30.4Zm.59-3.69c0,.12.12.08.24-.12a1.69,1.69,0,0,0,.24-.6c0-.16-.12-.08-.24.12A1.45,1.45,0,0,0,74.06,26.71Zm6.79-11.13c-2.6,4.66-6.58,13.74-6.49,14.94,0,.16.24-.32.47-1s.88-2.33,1.36-3.5c2.26-5.9,8.09-16.26,11-19.44.24-.32.44-.61.36-.69C87.23,5.58,83,11.64,80.85,15.58Zm-6.11,9.77a3.73,3.73,0,0,0,.4-1c.12-.4.08-.48-.08-.24a4.49,4.49,0,0,0-.36,1C74.58,25.55,74.58,25.63,74.74,25.35Zm2.47-5.91c0,.12.16,0,.36-.36a4,4,0,0,0,.32-.84c0-.16-.16,0-.32.36A2.25,2.25,0,0,0,77.21,19.44Zm3.06,5.41a1.73,1.73,0,0,0-.4.4c0,.2.2.08.52-.32S80.67,24.53,80.27,24.85Zm.8-1.29c0,.2.2.08.52-.32s.28-.4-.08-.12A2,2,0,0,0,81.07,23.56Zm.72-1c0,.2.2.08.52-.32s.28-.41-.08-.12A2,2,0,0,0,81.79,22.6Zm1.48-1.85c.08,0,.32-.24.56-.48s.4-.49.32-.49a1.9,1.9,0,0,0-.56.49C83.35,20.51,83.23,20.75,83.27,20.75Zm3.87-4.63a2.81,2.81,0,0,0,.68-.6c.32-.32.52-.6.44-.6a3,3,0,0,0-.68.6C87.26,15.88,87.06,16.12,87.14,16.12ZM89,13.87c0,.2.2.08.52-.36s.28-.36-.08-.08S89,13.79,89,13.87ZM99.73,26.39a89.82,89.82,0,0,1-7.54,12.06c-.4.48-.64.88-.56.88A9.1,9.1,0,0,0,92.79,38a79.85,79.85,0,0,0,7.78-12.54C101.88,22.53,101.52,23,99.73,26.39Zm1.55-5.5a80.54,80.54,0,0,1-7.22,13.42,1.54,1.54,0,0,0-.32.68,21.5,21.5,0,0,0,1.8-2.61,55.91,55.91,0,0,0,6.1-11.65C102.39,18.6,102.15,18.68,101.28,20.89Zm-2.59,4.58A22,22,0,0,0,100,22.74a14.79,14.79,0,0,0,1-2.69c-.08,0-.24.24-.44.68-.31.89-1.87,4.3-2.07,4.66C98.48,25.51,98.52,25.55,98.69,25.47Z" transform="translate(-0.1 -3.4)"/><path class="cls-1" d="M117.24,22.44a7.69,7.69,0,0,1,3.38,3.32c.57,1.72-.39,4-2.82,6.87-3.6,4.14-7.68,6.2-10,5a2.75,2.75,0,0,0-.85-.31A10.34,10.34,0,0,0,106,42c-.07,2,0,2.57.38,3.29l.44.84,1.68-.05a7,7,0,0,0,3.81-1c3-1.41,4.52-2.66,10.36-8.58,2.88-2.93,5.36-5.31,5.48-5.31s.32.16.4.36.24.32.36.24c.32-.2.29.8-.07,1.41-1,2-8.23,9.73-11,11.82-4.49,3.39-8.29,4.76-10.54,3.81a13.42,13.42,0,0,1-5.47-5.4c-1.62-3.61-.31-9.06,3.36-14C108.59,24.64,114.15,21.45,117.24,22.44ZM104.61,35.52c.16-.36.2-.64.08-.64s-1.12,2.53-1.31,3.85c-.08.48.12.08.44-.84S104.49,35.88,104.61,35.52Zm-1.16.68c0,.12.12.08.24-.12a1.69,1.69,0,0,0,.24-.6c0-.16-.12-.08-.24.12A1.45,1.45,0,0,0,103.45,36.2Zm.48-1.32c0,.36.2.28.36-.16.08-.2,0-.32-.12-.2A.53.53,0,0,0,103.93,34.88Zm1.32.72a5.44,5.44,0,0,0-.83,1.84c0,.29.2,0,.55-1A1.92,1.92,0,0,0,105.25,35.6Zm1.91-4.78c.88-1.33,1-1.45.32-.72-.84,1-1.76,2.33-1.52,2.33A14.86,14.86,0,0,0,107.16,30.82Zm.37.8a24.81,24.81,0,0,1,2.11-2.86c.76-.88.88-1,.32-.56-1.24,1.13-3.95,4.95-3.51,4.95A16.57,16.57,0,0,0,107.53,31.62Zm10-6.29c-2.28.25-7.36,5.2-9.27,9l-.52,1,1.16-.13a7.52,7.52,0,0,0,2.36-.68c1.65-.77,5.08-4.27,6.08-6.16a8.78,8.78,0,0,0,.84-2.33C118.29,25.29,118.25,25.25,117.57,25.33Zm-.7,6.22-.8.72c-.72.65-.88.85-.68.85a10.53,10.53,0,0,0,.76-.77Zm.8-1.09a1.61,1.61,0,0,0-.56.49c-.24.28-.4.48-.32.48a1.54,1.54,0,0,0,.56-.48C117.59,30.66,117.75,30.46,117.67,30.46Zm.72-.28c-.24.2-.44.36-.44.44s.2,0,.52-.36S118.75,29.9,118.39,30.18Zm-.08-.68a1.38,1.38,0,0,0,.36-.48c.16-.28.2-.49.16-.49s-.24.21-.4.49S118.23,29.5,118.31,29.5Zm5.6,7.36.88-.84c.52-.45.92-.73.92-.65s.24,0,.52-.24c.64-.6,2.11-2.49,1.63-2.09-.24.16-.44.24-.52.16s-.44.24-.8.68c-.68.77-.68.77,0,.2.36-.32.64-.48.64-.36,0,.32-1.31,1.61-1.47,1.45s-.49.28-1,.77Zm1.52-.85a1.61,1.61,0,0,0-.56.49c-.24.24-.4.48-.32.48s.32-.24.56-.48S125.51,36,125.43,36Zm2.19-3.29a1.79,1.79,0,0,1,.52-.24.51.51,0,0,0,.32-.17c.12-.08,0-.12-.2-.08a1.28,1.28,0,0,0-.68.37C127.34,32.88,127.34,32.88,127.62,32.72Z" transform="translate(-0.1 -3.4)"/><path class="cls-1" d="M158.61,41c-2.44,3.42-4.68,5.55-5.92,5.55-.88,0-2.77-1.79-3.38-3.19s-.49-4.09.18-6.66c.52-2,.52-2.21.16-2a44.55,44.55,0,0,0-5.2,5.47c-1.2,1.61-1.92,2.3-2.36,2.3a7.55,7.55,0,0,1-2.57-2.32c-.69-1.36-.06-5.21,1.53-9.19a7.76,7.76,0,0,0,.64-2c-.29,0-1.72,1.57-3.48,3.74a50.21,50.21,0,0,0-5.55,9.21c-2,4-2.47,4.74-3.19,4.74a1.53,1.53,0,0,1-1.09-.72A2.84,2.84,0,0,0,127.3,45c-.76-.2-1.73-1.72-2.1-3.24-.53-2.53.14-5.9,1.94-9.59,1.27-2.69,3.51-5.59,4.47-5.83.76-.2,1.32,0,1.49.59.08.29.28.49.48.48s.28.12.2.24,0,.25.2.24a1.74,1.74,0,0,1,.77.48c.52.56.48.72-1.35,4.7-.76,1.73-1.4,3.25-1.4,3.37a10.64,10.64,0,0,0,1.48-2.13,73.9,73.9,0,0,1,6.67-9.12c1.88-2,3.68-2.66,4.37-1.46a9,9,0,0,0,1.2,1.4c.85.84,1,1.12,1,2,0,1.08-1.38,5.38-2.82,8.79-.83,2.09-1,2.73-.39,2,2.2-3,5.83-7.16,6.59-7.52,1-.52,1.37-.49,2.09.47a3.06,3.06,0,0,0,1.05,1,2.87,2.87,0,0,1,1.25,2.41,29.52,29.52,0,0,1-1.19,4.45c-1.27,3.82-1.59,5.14-1.39,5.74s1.81-.41,4.36-3a20.25,20.25,0,0,1,2.56-2.34c.24.12.84-.44,1.32-1.2.36-.61.32-.57-.32.2a3.25,3.25,0,0,1-.92.8,11.41,11.41,0,0,1,1.64-2.33,12.65,12.65,0,0,1,1.88-2.09c.16.16.76-.36.76-.64s-.2-.12-.44.08-.4.28-.08-.08.4-.4.44-.32.32,0,.52-.17C164,33,161.32,37.06,158.61,41Zm-28.54-8c.56-1.08,1.27-2.41,1.63-2.93,1-1.53,1.08-1.77.28-.85a30.59,30.59,0,0,0-3.83,7.6c-.75,2.53-.59,2.73.25.28A35.43,35.43,0,0,1,130.07,33Zm-2.2,2.61c0,.17.12.08.24-.12a1.45,1.45,0,0,0,.24-.6c0-.12-.12-.08-.24.12A1.69,1.69,0,0,0,127.87,35.56Zm.48-1.16c0,.28.16,0,1-1.53a9.76,9.76,0,0,0,.63-1.52A15.63,15.63,0,0,0,128.35,34.4Zm2.16-.53c.64-1.32,1.52-3,2-3.73s.52-1.09.24-.73a42.84,42.84,0,0,0-3.23,6.27C129.4,36,129.83,35.2,130.51,33.87Zm-.21,8.46a.65.65,0,0,0-.24.41c0,.32.2.24.36-.17C130.5,42.37,130.46,42.25,130.3,42.33Zm1.12-1.8c-.08,0-.28.32-.48.72s-.32.72-.28.72.28-.32.52-.72S131.5,40.53,131.42,40.53Zm.35-.85a.43.43,0,0,0-.24.36c0,.37.17.28.32-.12C131.93,39.68,131.89,39.6,131.77,39.68Zm1.08-1.81a1.18,1.18,0,0,0-.36.49c-.16.24-.2.48-.16.48s.24-.24.4-.48S132.93,37.87,132.85,37.87Zm3.39-4.82c-.16-.24-.28-.24-.52,0s-.36.32-.36.4.16,0,.32-.16.44-.2.52-.08S136.33,33.25,136.24,33.05Zm.28-1a2,2,0,0,0-.44.44c0,.2.2.08.52-.32S136.88,31.73,136.52,32Zm1.24-1.49c0-.08-.32.16-.56.52l-.44.65.56-.53C137.6,30.84,137.84,30.56,137.76,30.52Zm2.32-2.74-.8.73c-.72.68-.88.88-.72.88a6.5,6.5,0,0,0,.8-.8Zm2.42,5.49c.72-1.93,1.27-3.53,1.23-3.57A49.7,49.7,0,0,0,141.31,36,15.62,15.62,0,0,0,142.5,33.27Zm1.31,6.49a4.79,4.79,0,0,0-.68.61c-.32.32-.52.6-.44.6a3,3,0,0,0,.68-.6C143.69,40.05,143.89,39.76,143.81,39.76Zm1.71-2.25c-.2.16-.44.25-.52.21s-.32.12-.56.4c-.4.44-.4.48,0,.2s.4-.2.4-.08c0,.32-.6.84-.76.68s-.32.12-.56.4-.32.45-.12.33a1.68,1.68,0,0,1,.57-.25A3.89,3.89,0,0,0,145,38.32C145.52,37.71,145.72,37.35,145.52,37.51Zm-1.71-8.25c0,.12.12.08.24-.12a1.8,1.8,0,0,0,.24-.61c0-.16-.12-.08-.24.12A1.54,1.54,0,0,0,143.81,29.26Zm4.47,5.28-1,.92a3.07,3.07,0,0,1-1.08.81c-.08-.08-.4.16-.72.52s-.4.52-.2.36.48-.2.56-.12.16.08.12,0c-.08-.48,0-.76.2-.48.12.12.56-.2,1.12-.85Zm-.16-.64a1.49,1.49,0,0,0-.4.44c0,.2.2.08.52-.32S148.52,33.61,148.12,33.9Zm3.42,2.71a3.66,3.66,0,0,0,.39-1c.12-.4.08-.48-.08-.24a3.73,3.73,0,0,0-.35,1C151.38,36.77,151.38,36.85,151.54,36.61Zm4.07,7c-.12-.24-.24-.28-.52,0s-.32.32-.32.4.12,0,.32-.16a.51.51,0,0,1,.52-.08C155.69,43.9,155.73,43.82,155.61,43.66Zm.64-.89c-.12-.08-.2,0-.2.24,0,.41.08.45.28.12A.31.31,0,0,0,156.25,42.77Zm2.36-2.89c-.08-.08-.32.16-.56.52l-.48.64.56-.52C158.45,40.2,158.65,39.92,158.61,39.88Zm3.79-5.15a8.8,8.8,0,0,0-1.64,2.17c0,.28.2.12,1-1C162.16,35.33,162.48,34.77,162.4,34.73Z" transform="translate(-0.1 -3.4)"/><path class="cls-1" d="M184.58,36.06c-3.59,5.59-6.59,9.41-8.19,10.5-1,.64-1.72.49-3-.63-1.45-1.24-1.89-2.32-1.9-4.49V39.76l-2.36,2.37c-2.28,2.33-3.84,3.42-4.88,3.42-.61,0-1.93-.63-1.93-.95,0-.08-.32-.32-.73-.48a4.6,4.6,0,0,1-2.25-3.2c-.49-2.45.9-7,3.21-10.48C165.3,26.34,169.9,23,173,23c1.8,0,2.16.19,4,2.11,1.53,1.56,2,2.36,1.7,3.08-.12.24,0,.56.44.88a1.51,1.51,0,0,1,.61,1.08,23.58,23.58,0,0,1-1.59,4.18c-2.43,5.38-3,7-3.18,8.75a11.64,11.64,0,0,0-.08,1.81c.2.16,1.36-.69,2.68-1.93.68-.69,2.84-3.38,4.8-6s3.63-4.78,3.75-4.78,0,.36-.36.8l-.52.77L186,33C187.09,32,186.93,32.37,184.58,36.06Zm-22.53,2a29.76,29.76,0,0,1,1.63-3.93c.56-1.05.83-1.77.67-1.65-.76.64-3,6-3,7.15C161.37,39.91,161.69,39.19,162.05,38.06Zm1.12-.8A26,26,0,0,1,165,33.4c.44-.72,1.12-1.73,1.52-2.25.52-.68.55-.84.19-.48-1.19,1-3.27,4.7-4.18,7.35C161.73,40.35,162.05,40,163.17,37.26Zm12.92-9.55c0-.52-.88-.32-2.8.65a17,17,0,0,0-5.64,5.19,30,30,0,0,0-3.79,7.88l-.16,1.08.73-.45c.36-.24,1.16-.84,1.72-1.32C168.79,38.6,176.09,29,176.09,27.71ZM164.79,32a6.18,6.18,0,0,0,.64-.77c.36-.52.44-.68.16-.44S164.59,32,164.79,32Zm6.92,4.55c-.24.2-.44.36-.44.44s.2,0,.52-.36S172.07,36.22,171.71,36.55Zm1.65,3.12c0-.2-.12-.12-.12.16s0,.4.12.32A.5.5,0,0,0,173.36,39.67Zm.92-2.45c.67-1.77.59-2.21-.09-.6-.43,1.08-.87,2.57-.67,2.37A14.73,14.73,0,0,0,174.28,37.22Zm.4.56a1.5,1.5,0,0,0,.2-.6c0-.12-.08-.08-.2.12a1.17,1.17,0,0,0-.24.6Q174.44,38.08,174.68,37.78Zm1.19-3.41a3.56,3.56,0,0,0-.48,1.12c0,.12.2-.16.48-.6a4.19,4.19,0,0,0,.44-1.13C176.31,33.64,176.11,33.93,175.87,34.37Zm2.32,9.3c-.2,0-.28.08-.2.2s.16.2.2.2.16-.12.2-.21S178.39,43.66,178.19,43.67Zm.56-.85a1.47,1.47,0,0,0-.44.4c0,.2.2.08.52-.32S179.11,42.5,178.75,42.82Zm5-7c-.4.32-.52.52-.32.52a1.47,1.47,0,0,0,.4-.44C184.18,35.5,184.18,35.46,183.78,35.79ZM185,34.1a1,1,0,0,0-.39.56c0,.16,0,.2,0,.16s.24-.32.44-.6C185.37,33.78,185.37,33.78,185,34.1Z" transform="translate(-0.1 -3.4)"/><path class="cls-1" d="M198.6,45a5.15,5.15,0,0,1-1.86-4.24c0-2.13,1.71-7,3.54-10a5,5,0,0,0,.72-1.53c-.2-.2-3.48,3.18-5.2,5.35-.84,1.09-2.19,2.94-3,4.15-4.11,6.14-5.31,7.39-6.56,6.55-.32-.2-.6-.48-.6-.6s-.28-.36-.65-.56c-1.8-.87-2.61-3.16-2.26-6.33.47-3.81,4.26-10.36,6.78-11.65.84-.48,1.76-.28,2,.36.08.28.2.48.32.48a6,6,0,0,1,1,.72c1,.87.93,1.36-.47,3.77-1.83,3.17-4.22,8.27-4,8.51a36.81,36.81,0,0,0,2.84-3.74c4-5.7,5.67-7.71,7.91-10,3.31-3.3,4.75-4.1,5.64-3.06.16.24.89,1,1.57,1.71,1.21,1.2,1.29,1.36,1.29,2.53,0,1-.27,1.68-1.59,4.29-.88,1.69-2.07,3.86-2.67,4.79a26.22,26.22,0,0,0-2.87,6.58c-.11.88-.07,1,.29,1,1.2,0,4.8-3.06,7.64-6.44a9.46,9.46,0,0,1,.92-1.08c.08-.08.75-.93,1.51-1.89,1.52-1.89,2-2.3,1.68-1.61-.16.4-.12.4.24.12.76-.61.44,0-1,2.13-.76,1.16-1.92,2.85-2.56,3.77-1.43,2.09-5.43,6.2-6.63,6.76C200.89,46.6,200.09,46.44,198.6,45ZM187.18,34.05a38.07,38.07,0,0,1,1.91-3.33,5.42,5.42,0,0,0,.88-1.57c-.32,0-2.67,3.78-3.55,5.71a19.14,19.14,0,0,0-1.51,4.81,10.53,10.53,0,0,0,.72-1.8A38.46,38.46,0,0,1,187.18,34.05Zm-1.24,1a10.8,10.8,0,0,0,.71-2A20.87,20.87,0,0,0,185,36.66C184.7,37.71,185,37.07,185.94,35Zm1.64.27a39.27,39.27,0,0,1,2.24-4.06,9.47,9.47,0,0,0,1.23-2.29,24.9,24.9,0,0,0-2.83,4.31,33.43,33.43,0,0,0-2.11,5c0,.12.16-.09.28-.41S187.07,36.38,187.58,35.29Zm3.35,4.12a.53.53,0,0,0-.24.36c0,.37.2.28.36-.12Q191.17,39.29,190.93,39.41Zm1.35-2.21c-.2,0-.28.08-.24.2s0,.41-.16.61-.24.36,0,.24a2.19,2.19,0,0,0,.52-.65C192.56,37.28,192.52,37.2,192.28,37.2Zm.88-1.48c.28-.41.28-.41-.12-.08a1.13,1.13,0,0,0-.4.4C192.64,36.24,192.84,36.12,193.16,35.72Zm.12.4a1.13,1.13,0,0,0-.4.4c0,.2.2.08.52-.32S193.68,35.79,193.28,36.12Zm1-2.21a2.63,2.63,0,0,0-.4.44c0,.2.2.08.52-.32S194.64,33.63,194.24,33.91Zm.36-.44a1.61,1.61,0,0,0,.56-.49c.24-.28.4-.48.32-.48a1.54,1.54,0,0,0-.56.48C194.68,33.26,194.52,33.47,194.6,33.47Zm1.12-.49c-.08,0-.32.24-.56.48s-.4.49-.32.49a1.61,1.61,0,0,0,.56-.49C195.64,33.22,195.8,33,195.72,33Zm2.35-3.1c-.16-.24-.28-.24-.52,0a1.29,1.29,0,0,0-.36.4c0,.08.16,0,.32-.12s.44-.2.52-.12S198.15,30,198.07,29.88Zm.6,10.47.28-.72c.16-.4.59-1.49,1-2.41s1.44-3,2.27-4.5,1.84-3.22,2.12-3.74a6.86,6.86,0,0,0,.71-1.6c.08-.33-.28.16-.75,1.12s-1.64,2.89-2.44,4.34a30.22,30.22,0,0,0-3,6.79Zm1.79-3.29c-.55,1.36-.35,1.2.4-.29.4-.76,1.52-2.85,2.52-4.66a37.28,37.28,0,0,0,1.79-3.41C205.17,28.42,200.9,36,200.46,37.06Zm-.08-2.33c.2-.16.24-.36.19-.44s-.24.08-.32.32S200.14,35,200.38,34.73Zm.39-.92a14.42,14.42,0,0,0,1-1.69c.44-.81.68-1.33.56-1.21a8.06,8.06,0,0,0-1,1.69C200.89,33.41,200.65,34,200.77,33.81Zm1.88-3.26a6.33,6.33,0,0,0,.72-1.2,4,4,0,0,0,.47-1.25,5.57,5.57,0,0,0-.71,1.25A3.43,3.43,0,0,0,202.65,30.55Zm1.2,13.55a1.29,1.29,0,0,0,.4-.36c.2-.28.2-.4,0-.52s-.24-.08-.12,0a.46.46,0,0,1-.12.52C203.85,43.94,203.77,44.1,203.85,44.1Zm2.32-3s.16,0,.36-.16a.39.39,0,0,1,.52-.08c.08.08.08,0,0-.17s-.24-.24-.52,0S206.17,41.05,206.17,41.13Zm1.36-1c.2,0,.36,0,.36-.08,0-.2-.48-.28-.6-.12S207.33,40.12,207.53,40.12Zm.88-.8c.12-.08.16-.2.08-.28s0-.29.16-.53.24-.32,0-.08S208.05,39.56,208.41,39.32ZM210,36.7c.36-.4,1-1.16,1.4-1.72a6,6,0,0,1,.95-1.13.22.22,0,0,0,.08-.32,7.73,7.73,0,0,0-1.63,1.89C209.93,36.5,209.57,37.11,210,36.7Z" transform="translate(-0.1 -3.4)"/><path class="cls-1" d="M235.84,38.19c-.8,1.16-2.28,3.21-3.24,4.62-3.07,4.38-4.15,5.11-6.2,4.07a9.32,9.32,0,0,1-3.94-4.16,17,17,0,0,1-.61-3.13l-.17-1.92L220.2,40A32.16,32.16,0,0,1,215,46.47a3.1,3.1,0,0,1-3.49.14c-.36-.24-1.08-.76-1.65-1.08-2.49-1.56-3.1-4-2-8.22,1.63-6.42,6.69-13.81,10.9-15.87a4.12,4.12,0,0,1,2.6-.57c1.21.11,1.41.23,2.54,1.35a7.12,7.12,0,0,0,1.44,1.24,7.52,7.52,0,0,0,1.16-2.09,133.12,133.12,0,0,1,7.29-14.18c1.4-1.89,2.12-2.13,2.81-.93.24.36.56.64.72.6s.4.12.57.44c.4.76,0,1.92-2.11,6.18-8,16.23-11.19,26.19-9.73,30.91.37,1.29,1,1.36,2.61.28,2.12-1.37,4.32-4,6.87-8.25,1.32-2.17,4.07-6.47,4.35-6.71,0,0,0,.12-.16.4-.44.85-.31,1,.24.32C240.94,29.19,237.24,36.22,235.84,38.19Zm-26.47,1c-.08-.16-.12-.12-.12.16s0,.4.12.32A.5.5,0,0,0,209.37,39.19Zm.8.12c.28-.92.8-2.57,1.2-3.61s1.23-2.81,1.83-3.9c1.23-2.29,1.27-2.65.08-.6-1.88,3.21-3.59,7.67-3.54,9.28C209.74,40.8,209.94,40.27,210.17,39.31ZM209.85,38a.5.5,0,0,0,0-.48c0-.2-.12-.12-.12.16S209.77,38.07,209.85,38Zm3.71-5a34.94,34.94,0,0,1,2.6-4.38c.71-1,1.07-1.64.79-1.4a34.11,34.11,0,0,0-3.83,5.91A32.44,32.44,0,0,0,210.81,39c-.07.48.2-.12.64-1.33A49.56,49.56,0,0,1,213.56,33Zm10-3.76c.55-1.68.55-2,.31-2.89a3,3,0,0,0-.57-1.12c-.4-.12-2.44,1.37-3.48,2.58-3.35,3.78-7.42,12.22-7.41,15.38v.69l1-.73a21.34,21.34,0,0,0,2.28-2C218.35,38.32,222.7,31.77,223.54,29.24ZM217.4,41.13c-.4.33-.52.53-.32.53a1.57,1.57,0,0,0,.4-.45C217.8,40.85,217.76,40.81,217.4,41.13Zm1.44-1.93c-.4.33-.52.53-.32.53a1.57,1.57,0,0,0,.4-.45C219.24,38.88,219.24,38.88,218.84,39.2Zm5.79-6.35a16.83,16.83,0,0,0-.87,3.93c0,.52.12.16.64-2.13C224.67,33.53,224.75,32.73,224.63,32.85Zm.72.32c0-.24,0-.2-.2.12a2.3,2.3,0,0,0-.19.84c0,.24.08.16.2-.12A2.27,2.27,0,0,0,225.35,33.17Zm.4-1.21a4.12,4.12,0,0,0,.32-1.12c0-.12-.12.08-.32.48a4.49,4.49,0,0,0-.32,1.12C225.43,32.64,225.59,32.4,225.75,32Zm.4-1.72c0,.2.16,0,.32-.49a4.44,4.44,0,0,0,.35-1.08c0-.12-.16.08-.36.48A4.68,4.68,0,0,0,226.15,30.24Zm.23-2.73c0,.36.48-.65,1.67-3.5,1.24-3,5.3-11.56,7-14.58.52-1,.8-1.6.6-1.36a24,24,0,0,0-1.47,2.49,10.88,10.88,0,0,1-1.24,2c-.08,0,0-.16,0-.36.28-.69,0-.36-.44.44s-.32.72,0,.28c.76-.93.32.16-1.87,4.74C228.49,22.05,226.34,27.07,226.38,27.51Zm5.7-11c-.24-.2-4.54,9.36-5.14,11.29-.36,1.28.12.24,1.48-3,.71-1.84,1.87-4.45,2.54-5.78A22,22,0,0,0,232.08,16.54Zm-2.6,2.09c0,.37.16.28.32-.16.08-.2,0-.28-.08-.2A.53.53,0,0,0,229.48,18.63Zm.72-1.36c0,.28.12.16.48-.56s.24-.61-.12-.16A1.94,1.94,0,0,0,230.2,17.27Zm.71-1.53c0,.32.16.28.32-.16.08-.2,0-.32-.08-.24A.61.61,0,0,0,230.91,15.74Zm.48-1c0,.32.16.24.32-.16.08-.2,0-.32-.08-.24A.61.61,0,0,0,231.39,14.78Zm1.29,26.7c-.08,0-.28.13-.44.45-.32.48-.32.48.12.08C232.6,41.81,232.72,41.56,232.68,41.48Zm2.79-31.93a69.79,69.79,0,0,0-3.35,6.59c0,.08.84-1.41,1.83-3.3s2-3.73,2.16-4a2.07,2.07,0,0,0,.35-.73C236.46,7.94,236,8.59,235.47,9.55Zm-.67,29.12c-.08,0-.32.24-.56.48s-.32.53-.2.53.36-.25.52-.53S234.84,38.67,234.8,38.67Zm.68-1.2c-.08,0-.24.24-.36.48s-.24.48-.16.48.24-.2.4-.48S235.56,37.46,235.48,37.47Zm1-1.57s-.24.16-.44.44c-.28.52-.28.52.12.12C236.43,36.22,236.59,36,236.51,35.9Zm2.83-4.9c-.08,0-.24.16-.39.44s-.52,1-.76,1.4-.36.73-.24.65a7,7,0,0,0,.88-1.25A4.49,4.49,0,0,0,239.34,31Z" transform="translate(-0.1 -3.4)"/></svg>